HIERARCHY
ROOT Hips
{
  OFFSET 196.326 95.9168 97.7182
  CHANNELS 6 Xposition Yposition Zposition Zrotation Xrotation Yrotation
  JOINT LeftUpLeg
  {
    OFFSET 8.64259 1.95398 -2.38835
    CHANNELS 3 Zrotation Xrotation Yrotation
    JOINT LeftLeg
    {
      OFFSET 43.7702 0 0
      CHANNELS 3 Zrotation Xrotation Yrotation
      JOINT LeftFoot
      {
        OFFSET 40.6238 0 0
        CHANNELS 3 Zrotation Xrotation Yrotation
        JOINT LeftToeBase
        {
          OFFSET 12.7242 0 0
          CHANNELS 3 Zrotation Xrotation Yrotation
          End Site
          {
            OFFSET 0 0 0
          }
        }
      }
    }
  }
  JOINT RightUpLeg
  {
    OFFSET -8.2249 1.95398 -2.59336
    CHANNELS 3 Zrotation Xrotation Yrotation
    JOINT RightLeg
    {
      OFFSET 43.5653 0 0
      CHANNELS 3 Zrotation Xrotation Yrotation
      JOINT RightFoot
      {
        OFFSET 40.6238 0 0
        CHANNELS 3 Zrotation Xrotation Yrotation
        JOINT RightToeBase
        {
          OFFSET 12.7242 0 0
          CHANNELS 3 Zrotation Xrotation Yrotation
          End Site
          {
            OFFSET 0 0 0
          }
        }
      }
    }
  }
  JOINT Spine
  {
    OFFSET 0.165834 0.87714 6.61349
    CHANNELS 3 Zrotation Xrotation Yrotation
    JOINT Spine1
    {
      OFFSET 7.38963 1.71661e-005 0
      CHANNELS 3 Zrotation Xrotation Yrotation
      JOINT Spine2
      {
        OFFSET 11.9445 1.14441e-005 0
        CHANNELS 3 Zrotation Xrotation Yrotation
        JOINT Spine3
        {
          OFFSET 14.7254 4.19617e-005 0
          CHANNELS 3 Zrotation Xrotation Yrotation
          JOINT Spine4
          {
            OFFSET 10.9679 0 0
            CHANNELS 3 Zrotation Xrotation Yrotation
            JOINT RightShoulder
            {
              OFFSET 2.46616 -1.6653 3.69651
              CHANNELS 3 Zrotation Xrotation Yrotation
              JOINT RightArm
              {
                OFFSET 13.0012 0 0
                CHANNELS 3 Zrotation Xrotation Yrotation
                JOINT RightForeArm
                {
                  OFFSET 28.7848 1.52588e-005 0
                  CHANNELS 3 Zrotation Xrotation Yrotation
                  JOINT RightHand
                  {
                    OFFSET 26.5688 1.52588e-005 0
                    CHANNELS 3 Zrotation Xrotation Yrotation
                    End Site
                    {
                      OFFSET 0 0 0
                    }
                  }
                }
              }
            }
            JOINT LeftShoulder
            {
              OFFSET 2.38034 -1.29275 -3.75231
              CHANNELS 3 Zrotation Xrotation Yrotation
              JOINT LeftArm
              {
                OFFSET 16.3182 6.10351e-005 0
                CHANNELS 3 Zrotation Xrotation Yrotation
                JOINT LeftForeArm
                {
                  OFFSET 27.0901 0 0
                  CHANNELS 3 Zrotation Xrotation Yrotation
                  JOINT LeftHand
                  {
                    OFFSET 24.5451 1.52588e-005 0
                    CHANNELS 3 Zrotation Xrotation Yrotation
                    End Site
                    {
                      OFFSET 0 0 0
                    }
                  }
                }
              }
            }
            JOINT Neck
            {
              OFFSET 5.0226 -0.0266342 0
              CHANNELS 3 Zrotation Xrotation Yrotation
              JOINT Head
              {
                OFFSET 6.69363 2.86102e-005 0
                CHANNELS 3 Zrotation Xrotation Yrotation
                End Site
                {
                  OFFSET 0 0 0
                }
              }
            }
          }
        }
      }
    }
  }
}
MOTION
Frames:	10
Frame Time:	0.0416667
-82.062 94.5503 -103.74 87.0855 -37.2732 84.653 -173.917 0.885039 83.7232 -19.5636 20.6033 -2.12069 63.9508 12.1365 19.5557 55.8184 20.6168 -28.2735 -179.2 26.4293 87.1485 -6.58107 11.6271 -0.589623 63.4481 -1.23391 -0.63661 55.5497 4.27585 14.891 -0.705654 7.14339 -89.681 12.5917 -1.24964 0.783082 0.921043 -1.21395 0.837313 -21.6183 -1.42721 0.371257 -1.60567 -1.42719 0.37125 81.0072 -53.4768 -113.11 31.3777 -6.89652 22.6696 -7.33526 -16.3614 -34.1682 -1.65318 -0.286185 3.1665 -98.2849 -37.7469 61.7184 -23.3136 3.23392 1.26063 10.5113 3.35534 -58.1539 12.335 0.872517 3.08006 -2.76432 -2.81642 -1.04988 10.2265 -2.123 3.77098 
-75.6964 92.8663 -98.0605 87.6597 -36.1121 84.6406 -174.219 -2.41799 84.5164 -24.4052 22.7412 -1.1513 63.1761 10.7517 17.7157 61.7857 27.5742 -19.744 -179.218 28.6153 87.1948 -8.85408 13.0963 -0.267283 67.123 -1.66774 -0.905114 58.2989 5.26049 17.1511 -0.871112 7.1568 -89.6518 12.5652 -1.56454 0.87832 0.894818 -1.52437 0.946327 -21.6472 -1.75615 0.36739 -1.63452 -1.75615 0.367389 80.9122 -53.5852 -113.207 32.1856 -6.11819 24.8938 -7.00433 -17.0563 -31.6686 -2.39855 -0.327661 2.63897 -98.1246 -37.6867 61.9577 -21.9263 1.31686 0.473006 10.4493 1.55948 -63.7989 12.1419 0.791039 2.54641 -2.23464 -2.74893 -0.838288 9.90287 -2.11723 3.55224 
-68.8739 91.6151 -91.9826 89.7903 -34.9815 88.7924 -173.813 -4.04614 89.0122 -33.7514 26.7008 0.439766 58.4461 6.24018 15.8349 73.9941 37.3569 -19.0109 179.855 30.3271 89.5401 -21.6068 7.42784 0.518838 55.6395 0.991897 0.951789 43.0859 1.86784 15.525 -0.969447 7.25101 -90.0679 12.3744 -1.9586 0.087259 0.704872 -1.95285 0.173398 -21.8416 -1.89423 -0.505632 -1.82895 -1.89426 -0.505636 80.986 -53.4916 -113.135 31.6968 -5.43988 26.0406 -7.30092 -17.2475 -30.8484 -2.25904 -0.324534 2.68312 -99.0611 -39.4432 61.1995 -21.9439 2.46989 1.45814 12.0131 2.43936 -64.6268 13.9999 0.930007 2.71532 -2.69374 -2.70072 0.657306 9.53758 -2.36191 2.84302 
-62.709 90.8094 -86.889 92.3924 -37.657 94.7148 -172.161 -0.0618421 95.5585 -48.8521 25.2307 0.509883 45.7465 -6.57741 7.08753 72.4253 38.8289 -13.6791 179.402 30.7982 95.597 -35.6806 8.22478 1.25082 62.8551 -1.21303 -0.62155 21.8426 -3.12792 21.9488 -0.627832 7.46224 -90.6116 11.9395 -1.53639 -1.05177 0.26911 -1.5812 -0.983128 -22.267 -1.14932 -1.46489 -2.25438 -1.1493 -1.46488 80.1885 -52.9973 -114.459 30.0872 -5.601 24.0743 -6.93586 -16.982 -31.0194 -3.04972 -0.362476 2.64638 -99.1969 -40.6956 61.5267 -25.3509 3.42591 2.09193 8.16519 1.36948 -58.1147 11.7505 0.791988 2.74869 -3.6827 -2.732 1.73135 9.57155 -2.55323 2.52765 
-57.8733 91.7048 -82.0592 92.6769 -37.1985 94.24 -173.763 10.9032 94.4754 -60.5017 15.7049 1.2746 43.8919 -6.69508 8.64915 50.1024 22.3834 -3.75453 178.935 27.5479 96.037 -39.1392 7.97863 0.999432 68.3787 -2.40818 -1.2626 23.8618 -2.26547 18.1686 -0.557944 7.56083 -90.4432 11.7479 -1.31776 -0.744627 0.0774535 -1.34926 -0.685906 -22.4596 -1.03305 -1.10625 -2.44698 -1.03306 -1.10625 80.6176 -52.9641 -113.855 29.3972 -5.64535 19.087 -7.76784 -15.2284 -35.3454 -7.63415 -0.607007 3.04708 -99.967 -40.8204 60.358 -27.7726 6.48884 2.59556 8.6211 5.62976 -48.8477 13.3815 0.988296 3.39059 -4.29787 -3.79047 0.60069 10.5595 -3.55041 1.94992 
-53.2007 93.4398 -77.678 92.4056 -38.6497 93.0152 -173.603 18.4328 93.3027 -58.353 9.19517 1.12392 49.0045 -2.2655 11.4345 55.5207 25.5184 -10.5014 179.646 22.3526 96.0889 -36.7295 8.42836 -0.0551377 69.8656 -2.97857 -1.55103 26.5592 -1.67182 18.3768 -0.242816 7.57724 -90.2163 11.7186 -0.584271 -0.369607 0.0477221 -0.599968 -0.34354 -22.4876 -0.446176 -0.528115 -2.47499 -0.446164 -0.528114 81.2363 -51.7743 -113.398 29.4336 -6.19198 15.1257 -8.3778 -11.2015 -44.4393 -12.1686 -0.933677 3.76102 -100.099 -40.9452 60.2029 -31.0866 8.45402 4.24048 6.83871 8.37552 -39.7904 11.7723 0.958132 4.08832 -5.13499 -4.95011 -0.399006 11.0846 -4.67296 1.50803 
-48.7429 94.5499 -73.6247 91.756 -40.2955 91.8339 -171.963 22.9727 92.272 -46.4555 2.03701 0.193056 56.1957 3.31528 12.3673 55.4138 26.5142 -7.17732 -179.349 17.7175 96.2715 -34.2714 7.71993 -1.38485 71.2591 -3.73699 -1.91919 29.6212 -0.918295 17.2581 0.0762105 7.535 -89.9844 11.8039 0.15922 0.014253 0.132939 0.159685 0.00722866 -22.4023 0.147566 0.0614421 -2.38964 0.14757 0.0614455 81.7321 -50.5988 -113.101 28.8444 -7.46316 11.3663 -9.3373 -7.04637 -53.7199 -13.1269 -0.867929 2.56057 -99.5983 -40.2215 60.6793 -35.7066 8.67516 9.05473 6.13754 9.97955 -35.6857 10.925 0.987923 4.86208 -5.75448 -6.0535 -2.02843 11.8996 -5.56411 1.87542 
-44.094 94.9144 -70.2634 91.5496 -41.2851 91.446 -171.172 24.5336 91.8757 -29.2846 2.12485 -1.28021 57.0134 3.82335 13.3188 59.0922 30.5998 -5.60981 -179.354 13.5658 96.0641 -33.4274 7.24791 -1.96411 73.4159 -4.36302 -2.16534 31.7424 -0.467671 17.4769 0.318436 7.57178 -89.9056 11.73 0.677667 0.116822 0.0592554 0.682142 0.0868755 -22.4771 0.611223 0.315094 -2.46443 0.611213 0.31509 82.8912 -48.1791 -112.248 28.4512 -8.33423 7.55122 -11.6375 -5.37122 -62.4606 -14.1504 -0.917054 2.4709 -100.149 -40.5791 59.9611 -39.1038 9.29422 14.8799 4.84605 9.54675 -34.525 11.2264 0.899679 3.91939 -4.46402 -6.80591 -1.55731 10.9329 -6.48329 0.988402 
-39.1782 94.8637 -67.2186 91.2054 -41.0057 91.7173 -172.608 25.2964 92.0781 -12.9411 3.32923 -1.16343 58.9984 3.65466 10.999 56.2992 28.8364 -3.06209 -179.704 9.01222 96.205 -31.6801 7.95885 -1.8696 75.4848 -5.34808 -2.55819 34.4578 0.0984562 18.4291 0.438513 7.57771 -89.9231 11.7186 0.908307 0.0576735 0.0480118 0.90998 0.0176282 -22.4895 0.848965 0.328012 -2.47687 0.848995 0.328016 82.8727 -47.9707 -112.354 24.7485 -9.18206 3.43417 -13.3869 -5.00501 -67.68 -14.8228 -1.04343 3.23096 -99.0819 -40.7963 61.7536 -42.5108 9.52586 19.1305 3.79265 9.26961 -33.5169 11.092 0.890718 3.92388 -4.26553 -7.60184 -1.99347 11.3096 -7.17209 1.32741 
-34.0949 94.3777 -64.2653 91.4101 -40.9172 92.7438 -173.955 26.1294 92.5385 -4.73521 2.23968 -0.100904 60.5115 4.26086 13.0109 57.9131 30.1068 -3.94508 179.707 4.69073 96.2116 -31.1594 9.04359 -1.61508 76.4686 -5.95074 -2.78272 39.3676 1.31037 20.7355 0.69997 7.63375 -90.0182 11.6081 1.38387 -0.17974 -0.0621359 1.37462 -0.240484 -22.603 1.3739 0.244564 -2.59038 1.37387 0.24455 82.6929 -48.7309 -112.349 20.2373 -8.81584 0.400565 -15.3945 -5.6068 -69.5182 -13.8393 -0.8357 1.86483 -98.36 -40.6382 62.8387 -45.09 7.61037 22.18 3.59502 8.43927 -32.1391 10.3477 0.800094 3.60883 -4.3063 -8.63023 -2.00056 11.9968 -8.28322 0.770791 
